<svg xmlns="http://www.w3.org/2000/svg" width="14" height="14" viewBox="0 0 14 14">
  <path fill-rule="evenodd" d="M80.132,218.898 L80.132,221.964 L82.75,223.518 L82.316,224.26 L79.25,222.398 L79.25,218.898 L80.132,218.898 Z M79.824,226.5 C80.6640042,226.5 81.4479964,226.285335 82.176,225.856 C82.8853369,225.445331 83.4453313,224.885337 83.856,224.176 C84.2853355,223.447996 84.5,222.664004 84.5,221.824 C84.5,220.983996 84.2853355,220.200004 83.856,219.472 C83.4453313,218.762663 82.8853369,218.202669 82.176,217.792 C81.4479964,217.362665 80.6640042,217.148 79.824,217.148 C78.9839958,217.148 78.2000036,217.362665 77.472,217.792 C76.7626631,218.202669 76.2026687,218.762663 75.792,219.472 C75.3626645,220.200004 75.148,220.983996 75.148,221.824 C75.148,222.664004 75.3626645,223.447996 75.792,224.176 C76.2026687,224.885337 76.7626631,225.445331 77.472,225.856 C78.2000036,226.285335 78.9839958,226.5 79.824,226.5 Z M79.824,216 C80.8880053,216 81.8726621,216.265997 82.778,216.798 C83.6553377,217.302003 84.3459975,217.992662 84.85,218.87 C85.3820027,219.775338 85.648,220.759995 85.648,221.824 C85.648,222.888005 85.3820027,223.872662 84.85,224.778 C84.3459975,225.655338 83.6553377,226.345997 82.778,226.85 C81.8726621,227.382003 80.8880053,227.648 79.824,227.648 C78.7599947,227.648 77.7753379,227.382003 76.87,226.85 C75.9926623,226.336664 75.3020025,225.641338 74.798,224.764 C74.2659973,223.858662 74,222.878672 74,221.824 C74,220.769328 74.2659973,219.789338 74.798,218.884 C75.3113359,218.006662 76.0066623,217.311336 76.884,216.798 C77.7893379,216.265997 78.7693281,216 79.824,216 Z" transform="translate(-73 -215)"/>
</svg>
