<?xml version="1.0" encoding="utf-8"?>
<!-- Generated by IcoMoon.io -->
<svg version="1.1" xmlns="http://www.w3.org/2000/svg" xmlns:xlink="http://www.w3.org/1999/xlink" width="200" height="32" viewBox="0 0 200 32">
<svg id="icon-back" width="18" height="32" viewBox="0 0 18 32" x="0" y="0">
<path d="M17.378 29.721l-14.036-13.736 14.007-13.706c0.533-0.522 0.533-1.367 0-1.888s-1.396-0.522-1.928 0l-14.85 14.53c-0.047 0.036-0.103 0.053-0.147 0.095-0.146 0.143-0.243 0.311-0.309 0.489-0.217 0.488-0.128 1.076 0.28 1.476 0.094 0.092 0.208 0.148 0.32 0.207l14.736 14.419c0.533 0.521 1.396 0.521 1.928 0s0.533-1.367 0-1.888z"></path>
</svg>
<svg id="icon-geo" width="29" height="32" viewBox="0 0 29 32" x="48" y="0">
<path d="M10.909 10c0 2.209 1.791 4 4 4s4-1.791 4-4c0-2.209-1.791-4-4-4s-4 1.791-4 4v0z"></path>
<path d="M28.012 25.6c-0.448-0.457-1.121-0.914-2.018-1.143-0.673-0.229-1.794-0.457-2.691-0.457h-0.224c-0.448 0-0.673 0.457-0.673 0.914s0.448 0.914 0.897 0.914h0.897c1.57 0.229 2.467 0.686 2.691 1.143 0.224 0.229 0.448 0.457 0.448 0.686 0 0.457-0.897 1.143-2.915 1.6-2.242 0.686-5.382 0.914-8.745 0.914-3.588 0-6.503-0.229-8.745-0.914-2.467-0.686-3.139-1.371-3.139-1.6 0-0.457 0.224-0.686 0.448-0.914 0.449-0.229 1.121-0.457 2.242-0.686h1.121c0.449 0 0.897-0.457 0.897-0.914s-0.224-0.686-0.673-0.914h-0.224c-2.018 0-3.364 0.457-4.261 0.914-0.897 0.686-1.345 1.371-1.345 2.514 0 0.914 0.448 1.6 1.345 2.286 0.673 0.457 1.57 0.914 2.915 1.143 2.242 0.686 5.606 0.914 9.194 0.914 3.812 0 6.951-0.229 9.194-0.914 1.345-0.229 2.242-0.686 2.915-1.143 0.897-0.686 1.345-1.371 1.345-2.286s-0.224-1.6-0.897-2.057v0z"></path>
<path d="M13.62 27.323c0.434 0.452 0.868 0.677 1.303 0.677s1.085-0.226 1.303-0.677c1.737-2.484 3.256-4.742 5.21-8.129 2.171-3.613 3.474-6.774 3.474-8.806 0-2.71-1.085-5.419-2.822-7.226-1.954-2.032-4.342-3.161-6.947-3.161h-0.434c-2.605 0-4.993 1.129-6.947 3.161s-3.039 4.742-2.822 7.226c0 2.032 1.303 5.194 3.473 8.806 1.954 3.613 3.473 5.871 5.21 8.129v0zM7.107 10.387c0-2.258 0.868-4.065 2.388-5.645s3.473-2.484 5.427-2.484c1.954 0 3.908 0.903 5.427 2.484s2.388 3.387 2.388 5.645c0 1.129-0.651 2.935-1.954 5.645-1.303 2.484-3.039 5.194-5.427 8.581 0 0.226-0.217 0.226-0.434 0.226s-0.434 0-0.434-0.226c-4.559-6.548-7.381-11.968-7.381-14.226v0z"></path>
</svg>
<svg id="icon-refresh" width="32" height="32" viewBox="0 0 32 32" x="96" y="0">
<path fill="#00ae66" d="M30.595 21.888l-6.453 1.111c-0.9 0.156-1.288 1.182-0.695 1.848l1.224 1.377c-5.577 4.488-13.914 3.825-18.628-1.481-1.912-2.153-2.925-4.735-3.092-7.346h-0.017c0-0.068 0-0.14-0.010-0.208-0.119-0.766-0.869-1.289-1.674-1.172-0.801 0.117-1.353 0.828-1.234 1.594 0.003 0.016 0.010 0.029 0.010 0.042 0.222 3.163 1.456 6.29 3.77 8.898 5.767 6.488 15.959 7.297 22.773 1.809l1.115 1.253c0.593 0.666 1.718 0.471 2.028-0.351l2.216-5.878c0.31-0.822-0.43-1.653-1.333-1.497z"></path>
<path fill="#00ae66" d="M1.402 10.030l6.441-1.108c0.898-0.155 1.286-1.179 0.694-1.843l-1.164-1.309c5.564-4.483 13.894-3.826 18.603 1.471 1.936 2.177 2.947 4.801 3.090 7.444h0.017c0.003 0.042 0 0.087 0.007 0.13 0.122 0.761 0.871 1.286 1.671 1.169 0.728-0.104 1.242-0.706 1.239-1.386v0c0-0.013-0.003-0.029-0.003-0.042-0.003-0.055 0-0.107-0.010-0.162-0.003-0.013-0.007-0.023-0.010-0.036-0.214-3.171-1.439-6.31-3.763-8.921-5.754-6.476-15.935-7.279-22.734-1.801l-1.171-1.312c-0.592-0.664-1.715-0.47-2.025 0.35l-2.212 5.863c-0.31 0.816 0.429 1.649 1.33 1.493z"></path>
</svg>
</svg>
