<svg xmlns="http://www.w3.org/2000/svg" width="14" height="14" viewBox="0 0 14 14">
  <g fill="none" fill-rule="evenodd" transform="translate(-265 -215)">
    <path fill="#000" fill-rule="nonzero" d="M277.786957,219.40105 L274.556471,216.105073 C274.419157,215.964976 274.197528,215.964976 274.060214,216.105073 L267.102985,223.203343 C266.965672,223.343441 266.965672,223.570792 267.102985,223.710889 L269.297596,225.948761 L269.65413,226.36168 L269.65413,226.888889 L276.726991,226.888889 L276.726991,225.77917 L271.847536,225.77917 L277.785753,219.908596 C277.923066,219.768498 277.923066,219.541147 277.786957,219.40105 Z M272.944841,223.710889 L271.199512,225.490372 L269.968506,225.490372 L268.224381,223.710889 C268.087067,223.570792 268.087067,223.343441 268.224381,223.203343 L270.33588,221.049038 C270.473194,220.90894 270.694823,220.90894 270.832137,221.049038 L272.943637,223.203343 C273.082155,223.343441 273.082155,223.569563 272.944841,223.710889 Z"/>
    <rect width="14" height="14" x="265" y="215"/>
  </g>
</svg>
