<svg xmlns="http://www.w3.org/2000/svg" width="14" height="14" viewBox="0 0 14 14">
  <path fill-rule="evenodd" d="M55.824,227.696 L54.984,226.926 C53.7146603,225.777994 52.8373358,224.956669 52.352,224.462 C51.5586627,223.659329 50.9846684,222.945336 50.63,222.32 C50.2099979,221.610663 50,220.901337 50,220.192 C50,219.603997 50.1423319,219.065002 50.427,218.575 C50.7116681,218.084998 51.0966642,217.700001 51.582,217.42 C52.0673358,217.139999 52.6086637,217 53.206,217 C53.7006691,217 54.181331,217.111999 54.648,217.336 C55.114669,217.560001 55.5066651,217.858665 55.824,218.232 C56.1413349,217.858665 56.533331,217.560001 57,217.336 C57.466669,217.111999 57.9519975,217 58.456,217 C59.0440029,217 59.5829976,217.139999 60.073,217.42 C60.5630024,217.700001 60.9479986,218.084998 61.228,218.575 C61.5080014,219.065002 61.648,219.603997 61.648,220.192 C61.648,220.901337 61.4426687,221.61533 61.032,222.334 C60.6679982,222.959336 60.0893373,223.673329 59.296,224.476 C58.8013309,224.989336 57.9286729,225.815328 56.678,226.954 L55.824,227.696 Z" transform="translate(-49 -215)"/>
</svg>
