<svg xmlns="http://www.w3.org/2000/svg" width="138" height="36" viewBox="0 0 138 36">
  <path fill="#FFF" fill-rule="evenodd" d="M167.8,47.952 L177.112,47.952 L177.112,64.752 L151,64.752 L151,31.152 L167.8,31.152 L167.8,47.952 Z M196.792,30 C206.68,30 214.696,38.016 214.696,47.904 C214.696,57.792 206.68,65.808 196.792,65.808 C186.904,65.808 178.888,57.792 178.888,47.904 C178.888,38.016 186.904,30 196.792,30 Z M233.8,47.904 L251.56,47.904 C251.56,57.744 243.64,65.664 233.8,65.664 C223.96,65.664 216.04,57.744 216.04,47.904 C216.04,39.072 222.472,31.728 230.968,30.336 C234.952,29.712 239.128,30.48 242.68,32.496 L233.8,47.904 Z M270.568,30 C280.456,30 288.472,38.016 288.472,47.904 C288.472,57.792 280.456,65.808 270.568,65.808 C260.68,65.808 252.664,57.792 252.664,47.904 C252.664,38.016 260.68,30 270.568,30 Z" transform="translate(-151 -30)"/>
</svg>
