<svg xmlns="http://www.w3.org/2000/svg" width="14" height="14" viewBox="0 0 14 14">
  <path fill-rule="evenodd" d="M246.808,223.426 C247.284002,223.426 247.722665,223.307001 248.124,223.069 C248.525335,222.830999 248.842666,222.511335 249.076,222.11 C249.309335,221.708665 249.426,221.270002 249.426,220.794 C249.426,220.317998 249.309335,219.879335 249.076,219.478 C248.842666,219.076665 248.525335,218.759334 248.124,218.526 C247.722665,218.292665 247.284002,218.176 246.808,218.176 C246.331998,218.176 245.893335,218.292665 245.492,218.526 C245.090665,218.759334 244.771001,219.076665 244.533,219.478 C244.294999,219.879335 244.176,220.317998 244.176,220.794 C244.176,221.270002 244.294999,221.708665 244.533,222.11 C244.771001,222.511335 245.090665,222.830999 245.492,223.069 C245.893335,223.307001 246.331998,223.426 246.808,223.426 Z M250.308,223.426 L253.206,226.324 L252.324,227.206 L249.426,224.294 L249.426,223.832 L249.258,223.678 C248.931332,223.967335 248.555669,224.188999 248.131,224.343 C247.706331,224.497001 247.265336,224.574 246.808,224.574 C246.11733,224.574 245.480336,224.406002 244.897,224.07 C244.313664,223.733998 243.854002,223.281336 243.518,222.712 C243.172665,222.123997 243,221.48467 243,220.794 C243,220.10333 243.170332,219.466336 243.511,218.883 C243.851668,218.299664 244.313664,217.840002 244.897,217.504 C245.480336,217.167998 246.11733,217 246.808,217 C247.49867,217 248.137997,217.172665 248.726,217.518 C249.295336,217.854002 249.745665,218.31133 250.077,218.89 C250.408335,219.46867 250.574,220.10333 250.574,220.794 C250.574,221.260669 250.497001,221.706331 250.343,222.131 C250.188999,222.555669 249.967335,222.931332 249.678,223.258 L249.832,223.426 L250.308,223.426 Z" transform="translate(-241 -215)"/>
</svg>
