<svg xmlns="http://www.w3.org/2000/svg" width="32" height="32" viewBox="0 0 32 32">
  <path fill="#009688" d="M11.3499395,3.40437083 L10.1364933,3.40437083 C9.93837969,3.40437083 9.76503023,3.56441357 9.76503023,3.76138926 L9.76503023,4.98017633 C9.76503023,5.17715202 9.92599758,5.33719476 10.1364933,5.33719476 L11.3499395,5.33719476 C11.5480532,5.33719476 11.7214027,5.17715202 11.7214027,4.98017633 L11.7214027,3.76138926 C11.7214027,3.56441357 11.5604353,3.40437083 11.3499395,3.40437083 Z M11.3499395,7.29464066 L10.1364933,7.29464066 C9.93837969,7.29464066 9.76503023,7.45468341 9.76503023,7.66397008 L9.76503023,8.87044617 C9.76503023,9.06742185 9.92599758,9.23977558 10.1364933,9.23977558 L11.3499395,9.23977558 C11.5480532,9.23977558 11.7214027,9.07973283 11.7214027,8.87044617 L11.7214027,7.66397008 C11.7214027,7.45468341 11.5604353,7.29464066 11.3499395,7.29464066 Z M19.262104,17.9682608 L18.0610399,17.9682608 L18.0610399,12.4775635 C18.0610399,11.492685 17.1695284,10.6801603 16.1541959,10.6801603 L15.1264813,10.6801603 L15.1264813,1.65621159 C15.1264813,0.745199038 14.3711729,0.00654020839 13.4425151,0.00654020839 L3.64827086,0.00654020839 C2.71961306,0.00654020839 1.96430472,0.745199038 1.96430472,1.65621159 L1.96430472,17.9682608 L0.713712213,17.9682608 C0.329866989,17.9682608 0.00793228537,18.0913706 0.00793228537,18.473011 L0.00793228537,18.4607 C0.00793228537,18.8423404 0.317484885,18.9408282 0.713712213,18.9408282 L19.2744861,18.9408282 C19.6583313,18.9408282 19.980266,18.7807855 19.980266,18.3991451 L19.980266,18.436078 C19.9678839,18.0667486 19.6583313,17.9682608 19.262104,17.9682608 Z M13.665393,17.7097302 C13.665393,17.8574619 13.5415719,17.9805717 13.3806046,17.9805717 L11.5109069,17.9805717 C11.3499395,17.9805717 11.2261185,17.8574619 11.2261185,17.7097302 L11.2261185,15.3213999 C11.2261185,15.1736682 11.3499395,15.0505584 11.5109069,15.0505584 L13.3806046,15.0505584 C13.5415719,15.0505584 13.665393,15.1736682 13.665393,15.3213999 L13.665393,17.7097302 Z M13.665393,13.8071493 C13.665393,13.9548811 13.5415719,14.0779909 13.3806046,14.0779909 L11.5109069,14.0779909 C11.3499395,14.0779909 11.2261185,13.9548811 11.2261185,13.8071493 L11.2261185,11.9481913 C11.2261185,11.8004595 11.3499395,11.6527278 11.5109069,11.6527278 L13.3806046,11.6527278 C13.5415719,11.6527278 13.665393,11.7758376 13.665393,11.9235693 L13.665393,13.8071493 Z M14.1606771,10.6801603 L12.0309553,10.6801603 C11.0156227,10.6801603 10.2603144,11.480374 10.2603144,12.4775635 L10.2603144,17.9682608 L2.94249093,17.9682608 L2.94249093,2.07478493 C2.94249093,1.47154689 3.45015719,0.966796687 4.06926239,0.966796687 L13.0462878,0.966796687 C13.665393,0.966796687 14.1730593,1.45923591 14.1730593,2.07478493 L14.1606771,10.6801603 Z M17.0952358,17.7097302 C17.0952358,17.8574619 16.9714148,17.9805717 16.8104474,17.9805717 L14.9283676,17.9805717 C14.7674002,17.9805717 14.6435792,17.8574619 14.6435792,17.7097302 L14.6435792,15.3213999 C14.6435792,15.1736682 14.7674002,15.0505584 14.9283676,15.0505584 L16.8104474,15.0505584 C16.9714148,15.0505584 17.0952358,15.1736682 17.0952358,15.3213999 L17.0952358,17.7097302 Z M17.0952358,13.8071493 C17.0952358,13.9548811 16.9714148,14.0779909 16.8104474,14.0779909 L14.9283676,14.0779909 C14.7674002,14.0779909 14.6435792,13.9548811 14.6435792,13.8071493 L14.6435792,11.9358803 C14.6435792,11.7881485 14.7674002,11.6650387 14.9283676,11.6650387 L16.8104474,11.6650387 C16.9714148,11.6650387 17.0952358,11.7881485 17.0952358,11.9358803 L17.0952358,13.8071493 Z M6.96667473,7.29464066 L5.74084643,7.29464066 C5.54273277,7.29464066 5.36938331,7.45468341 5.36938331,7.66397008 L5.36938331,8.87044617 C5.36938331,9.06742185 5.53035067,9.23977558 5.74084643,9.23977558 L6.96667473,9.23977558 C7.16478839,9.23977558 7.33813785,9.07973283 7.33813785,8.87044617 L7.33813785,7.66397008 C7.32575574,7.45468341 7.16478839,7.29464066 6.96667473,7.29464066 Z M6.96667473,3.40437083 L5.74084643,3.40437083 C5.54273277,3.40437083 5.36938331,3.56441357 5.36938331,3.76138926 L5.36938331,4.98017633 C5.36938331,5.17715202 5.53035067,5.33719476 5.74084643,5.33719476 L6.96667473,5.33719476 C7.16478839,5.33719476 7.33813785,5.17715202 7.33813785,4.98017633 L7.33813785,3.76138926 C7.32575574,3.56441357 7.16478839,3.40437083 6.96667473,3.40437083 Z M6.96667473,11.1849105 L5.74084643,11.1849105 C5.54273277,11.1849105 5.36938331,11.3449532 5.36938331,11.5419289 L5.36938331,12.760716 C5.36938331,12.9576917 5.53035067,13.1177344 5.74084643,13.1177344 L6.96667473,13.1177344 C7.16478839,13.1177344 7.33813785,12.9576917 7.33813785,12.760716 L7.33813785,11.5419289 C7.32575574,11.3449532 7.16478839,11.1849105 6.96667473,11.1849105 Z" transform="translate(6 7)"/>
</svg>
