<svg xmlns="http://www.w3.org/2000/svg" width="81" height="80" viewBox="0 0 81 80">
  <g fill="none" fill-rule="evenodd" transform="translate(1)">
    <rect width="80" height="80"/>
    <g fill-rule="nonzero" transform="translate(2.308 15.077)">
      <path fill="#009688" d="M0.151846154,25.8113846 C0.336461538,26.1806154 0.644153846,26.4575385 1.02876923,26.5806154 L10.6595385,29.8883077 C10.8287692,29.9498462 10.9826154,29.9652308 11.1518462,29.9652308 C11.7826154,29.9652308 12.3826154,29.5652308 12.598,28.9344615 L20.1518462,6.88830769 L20.5364615,7.02676923 C22.4903077,7.71907692 24.6749231,7.596 26.5364615,6.68830769 L27.4749231,6.22676923 C28.598,5.68830769 29.9056923,5.596 31.0749231,6.01138462 L48.6441538,12.0729231 C48.4595385,12.7498462 48.1056923,13.5344615 47.4903077,13.9652308 C46.7826154,14.4575385 45.6903077,14.4575385 44.2595385,13.9652308 L36.3826154,11.2729231 C35.9826154,11.1344615 35.5364615,11.1806154 35.1672308,11.3806154 C34.798,11.5806154 34.5210769,11.9344615 34.4133846,12.3344615 C34.398,12.3806154 33.2903077,16.4421538 29.8749231,18.2729231 C27.7210769,19.4267692 25.0287692,19.4575385 21.8749231,18.3806154 C21.0749231,18.1036923 20.2133846,18.5344615 19.9364615,19.3344615 C19.6595385,20.1344615 20.0903077,20.996 20.8903077,21.2729231 C22.7364615,21.9036923 24.4903077,22.2267692 26.1210769,22.2267692 C28.0133846,22.2267692 29.7518462,21.796 31.3364615,20.9498462 C34.4133846,19.2883077 36.0441538,16.4267692 36.798,14.6575385 L43.2595385,16.8729231 C45.6595385,17.6883077 47.6595385,17.5652308 49.2133846,16.4883077 C51.6595385,14.796 51.8287692,11.4883077 51.8441538,11.1190769 C51.8595385,10.4575385 51.4441538,9.85753846 50.8133846,9.62676923 L32.0441538,3.14984615 C30.1056923,2.48830769 27.9518462,2.61138462 26.1056923,3.51907692 L25.1672308,3.98061538 C24.0287692,4.53446154 22.7056923,4.61138462 21.5210769,4.196 L19.9672308,3.64215385 C19.8749231,3.58061538 19.7826154,3.53446154 19.6749231,3.50369231 L10.0903077,0.165230769 C9.29030769,-0.111692308 8.42876923,0.319076923 8.15184615,1.11907692 L0.0749230769,24.6575385 C-0.0481538462,25.0267692 -0.0173846154,25.4421538 0.151846154,25.8113846 Z M10.5518462,3.53446154 L17.2903077,5.84215385 L10.2133846,26.5036923 L3.47492308,24.196 L10.5518462,3.53446154 Z"/>
      <path fill="#2C2F33" d="M16.0133846,39.7652308 C16.7672308,41.3036923 18.2749231,42.196 19.8749231,42.2575385 C19.8749231,42.9190769 20.0287692,43.596 20.3210769,44.2113846 C20.8441538,45.2883077 21.7518462,46.0883077 22.8903077,46.4729231 C23.3672308,46.6421538 23.8595385,46.7190769 24.3364615,46.7190769 C25.0133846,46.7190769 25.6749231,46.5652308 26.2903077,46.2575385 L27.0903077,45.8575385 C27.1518462,46.3190769 27.2903077,46.796 27.5056923,47.2421538 C28.0287692,48.3190769 28.9364615,49.1190769 30.0749231,49.5036923 C30.5518462,49.6729231 31.0441538,49.7498462 31.5210769,49.7498462 C32.198,49.7498462 32.8595385,49.596 33.4749231,49.2883077 L50.9672308,40.7190769 C54.8749231,38.8113846 58.4749231,36.3498462 61.6749231,33.4113846 L65.5826154,29.8267692 L74.5210769,25.4575385 C75.2749231,25.0883077 75.5826154,24.1806154 75.2133846,23.4267692 L64.3210769,1.07292308 C64.1364615,0.703692308 63.8287692,0.426769231 63.4441538,0.303692308 C63.0595385,0.165230769 62.6441538,0.196 62.2749231,0.380615385 L53.1364615,4.85753846 C52.3826154,5.22676923 52.0749231,6.13446154 52.4441538,6.88830769 L62.8749231,28.2113846 L59.6441538,31.1806154 C56.6595385,33.9190769 53.2903077,36.2113846 49.6595385,37.996 L32.1672308,46.5652308 C31.8287692,46.7344615 31.4441538,46.7498462 31.0749231,46.6267692 C30.7210769,46.5036923 30.4287692,46.2421538 30.2595385,45.9036923 C30.0903077,45.5652308 30.0749231,45.1806154 30.198,44.8113846 C30.3210769,44.4575385 30.5826154,44.1652308 30.9210769,43.996 L40.7056923,39.2113846 C41.4595385,38.8421538 41.7672308,37.9344615 41.398,37.1806154 C41.0287692,36.4267692 40.1210769,36.1190769 39.3672308,36.4883077 L29.5826154,41.2729231 L24.9672308,43.5344615 C24.6287692,43.7036923 24.2441538,43.7190769 23.8749231,43.596 C23.5210769,43.4729231 23.2287692,43.2113846 23.0595385,42.8729231 C22.8903077,42.5344615 22.8749231,42.1498462 22.998,41.7806154 C23.1210769,41.4267692 23.3826154,41.1344615 23.7210769,40.9652308 L37.7518462,34.1036923 C38.5056923,33.7344615 38.8133846,32.8267692 38.4441538,32.0729231 C38.0749231,31.3190769 37.1672308,31.0113846 36.4133846,31.3806154 L20.6441538,39.0883077 C19.9364615,39.4267692 19.0903077,39.1344615 18.7364615,38.4421538 C18.5672308,38.1036923 18.5518462,37.7190769 18.6749231,37.3498462 C18.798,36.996 19.0595385,36.7036923 19.398,36.5344615 L25.6133846,33.4883077 L33.6903077,29.5344615 C34.4441538,29.1652308 34.7518462,28.2575385 34.3826154,27.5036923 C34.0133846,26.7498462 33.1056923,26.4421538 32.3518462,26.8113846 L19.7826154,32.9652308 C19.0749231,33.3036923 18.2287692,33.0113846 17.8749231,32.3190769 C17.5364615,31.6113846 17.8287692,30.7652308 18.5210769,30.4113846 L25.198,27.1498462 C25.9518462,26.7806154 26.2595385,25.8729231 25.8903077,25.1190769 C25.5210769,24.3652308 24.6133846,24.0575385 23.8595385,24.4267692 L17.1826154,27.6883077 C14.9672308,28.7652308 14.0441538,31.4575385 15.1364615,33.6729231 C15.4441538,34.3036923 15.8749231,34.8113846 16.398,35.2267692 C15.4749231,36.4729231 15.2595385,38.2421538 16.0133846,39.7652308 Z M55.8441538,6.91907692 L62.2441538,3.78061538 L71.8441538,23.396 L65.4441538,26.5344615 L55.8441538,6.91907692 Z"/>
    </g>
  </g>
</svg>
