<svg xmlns="http://www.w3.org/2000/svg" width="32" height="32" viewBox="0 0 32 32">
  <g fill="#009688" transform="translate(7 7)">
    <path d="M17.5488923,4.89108461 L14.8466769,4.89108461 L14.8466769,2.88380769 C14.8466769,1.29364615 13.5393231,0 11.9324077,0 L6.19400769,0 C4.58709231,0 3.27973846,1.29364615 3.27973846,2.88380769 L3.27973846,4.89115383 L0.451107686,4.89115385 C0.202015389,4.89108461 0,5.08735385 0,5.32938461 L0,15.9312461 C0,17.0719615 0.939046148,18 2.09333078,18 L15.9067385,18 C17.0609539,18 18,17.0719615 18,15.9312461 L18,5.32938461 C18,5.08735385 17.7979846,4.89108461 17.5488923,4.89108461 Z M17.0977154,15.9312461 C17.0977154,16.5886615 16.5633231,17.1234692 15.9066692,17.1234692 L13.8345923,17.1234692 L13.8345923,5.71984615 L12.9323077,5.71984615 L12.9323077,17.1234692 L5.26313078,17.1234692 L5.26313078,5.71984615 L4.36091539,5.71984615 L4.36091539,17.1234692 L2.09333078,17.1234692 C1.43667693,17.1234692 0.902284629,16.5886615 0.902284629,15.9312461 L0.902284611,5.76768461 L3.73084615,5.76768461 C3.97993846,5.76768461 4.18195383,5.57141539 4.18195383,5.32938461 L4.18195385,2.88380769 C4.18195385,1.77701537 5.08444617,0.8766 6.19393846,0.8766 L11.9323385,0.8766 C13.0419,0.8766 13.9443231,1.77701539 13.9443231,2.88380769 L13.9443231,5.32938461 C13.9443231,5.57141539 14.1463385,5.76768461 14.3954308,5.76768461 L17.0976461,5.76768461 L17.0976461,15.9312461 L17.0977154,15.9312461 Z"/>
    <path d="M11.1871142,2 L6.85371087,2 C6.10731795,2 5.50000002,2.59939573 5.50000002,3.33614345 L5.5,5.10662499 C5.5,5.33506579 5.69061566,5.52031455 5.92565168,5.52031455 L12.1149121,5.52031455 C12.3500134,5.52031455 12.5406291,5.33506579 12.5406291,5.10662499 L12.5406291,3.33614345 C12.5406291,2.59939573 11.9335071,2 11.1871142,2 Z M11.6892604,4.69293543 L6.3513687,4.69293543 L6.3513687,3.33614345 C6.3513687,3.0556239 6.57667145,2.82731379 6.85377619,2.82731379 L11.1871795,2.82731379 C11.464023,2.82731379 11.6893257,3.05555855 11.6893257,3.33614345 L11.6893257,4.69293543 L11.6892604,4.69293543 Z"/>
  </g>
</svg>
