<svg xmlns="http://www.w3.org/2000/svg" width="32" height="32" viewBox="0 0 32 32">
  <g fill="#009688" transform="translate(5 6)">
    <path d="M16.6295844,9.93878909 C15.8131012,9.93975849 15.0629563,10.3974636 14.6760829,11.1307289 C14.2892094,11.8639942 14.3279792,12.7546026 14.7770458,13.4500206 L14.0395843,14.2021037 L13.0977662,13.241612 L12.4713682,13.8804296 L13.4131864,14.8409213 L13.0977662,15.1625955 L11.8405277,13.8804296 L11.2141298,14.5192472 L12.4713682,15.8014131 L12.155948,16.1230872 L12.7823459,16.7619048 L15.4034437,14.0888382 C16.1955949,14.6275075 17.2362719,14.5914212 17.990716,13.9991227 C18.7451602,13.4068242 19.0455674,12.3900529 18.7375714,11.4712834 C18.4295755,10.5525138 17.5816811,9.9360996 16.6295844,9.93878909 Z M16.6295844,13.5632861 C15.8935205,13.5632861 15.2968228,12.9547577 15.2968228,12.2040997 C15.2968228,11.4534418 15.8935205,10.8449134 16.6295844,10.8449134 C17.3656483,10.8449134 17.962346,11.4534418 17.962346,12.2040997 C17.962346,12.9547577 17.3656483,13.5632861 16.6295844,13.5632861 Z M6.85599937,3.14285714 L5.52323778,3.14285714 C4.78717388,3.14285714 4.19047619,3.75138562 4.19047619,4.50204353 L4.19047619,7.22041631 C4.19047619,7.97107423 4.78717388,8.5796027 5.52323778,8.5796027 L6.85599937,8.5796027 C7.59206327,8.5796027 8.18876096,7.97107423 8.18876096,7.22041631 L8.18876096,4.50204353 C8.18876096,3.75138562 7.59206327,3.14285714 6.85599937,3.14285714 Z M7.30025324,7.22041631 C7.30025325,7.34057586 7.25344807,7.455814 7.1701343,7.54077963 C7.08682054,7.62574527 6.97382282,7.67347846 6.85599937,7.67347845 L5.52323778,7.67347845 C5.40541433,7.67347845 5.29241662,7.62574526 5.20910286,7.54077962 C5.1257891,7.45581399 5.07898392,7.34057586 5.07898392,7.22041631 L5.07898392,4.50204353 C5.07898392,4.25182423 5.27788315,4.04898141 5.52323778,4.04898141 L6.85599937,4.04898141 C6.97382282,4.0489814 7.08682053,4.09671459 7.1701343,4.18168023 C7.25344806,4.26664586 7.30025324,4.38188398 7.30025324,4.50204353 L7.30025324,7.22041631 Z"/>
    <path d="M16.0395149,8.14285309 C14.9017188,8.14277112 13.7879946,8.46631094 12.8316119,9.07475738 L12.8316119,0.90476144 L13.2898837,0.90476144 C13.5429803,0.90476144 13.7481556,0.702223693 13.7481556,0.45238072 C13.7481556,0.202537747 13.5429803,0 13.2898837,0 L0.458271846,0 C0.205175294,0 3.09953882e-17,0.202537747 0,0.45238072 C-3.09953882e-17,0.702223693 0.205175294,0.90476144 0.458271846,0.90476144 L0.916543713,0.90476144 L0.916543713,18.5476098 C0.916543713,19.2971387 1.5320696,19.904752 2.29135927,19.904752 L11.4567963,19.904752 C12.0618973,19.9019443 12.5939963,19.5089185 12.7674538,18.9366572 C14.8955098,20.3188737 17.678376,20.2125047 19.6917884,18.6719896 C21.7052007,17.1314744 22.5036039,14.4977193 21.6783771,12.1186736 C20.8531503,9.73962799 18.586911,8.14175939 16.0395149,8.14285309 Z M8.24889335,18.9999905 L5.04099039,18.9999905 L5.04099039,13.1190411 C5.04099039,12.8691981 5.24616568,12.6666604 5.49926223,12.6666604 L7.7906215,12.6666604 C8.04371806,12.6666604 8.24889335,12.8691981 8.24889335,13.1190411 L8.24889335,18.9999905 Z M11.9150682,18.5476098 C11.9150682,18.6675886 11.8667861,18.7826535 11.7808435,18.8674913 C11.6949008,18.9523291 11.5783376,18.9999906 11.4567963,18.9999905 L9.16543706,18.9999905 L9.16543706,13.1190411 C9.16543706,12.3695121 8.54991117,11.7618989 7.7906215,11.7618989 L5.49926223,11.7618989 C4.73997257,11.7618989 4.12444667,12.3695121 4.12444667,13.1190411 L4.12444667,18.9999905 L2.29135927,18.9999905 C2.16981801,18.9999906 2.05325477,18.9523291 1.96731212,18.8674913 C1.88136947,18.7826535 1.8330874,18.6675886 1.8330874,18.5476098 L1.8330874,0.90476144 L11.9150682,0.90476144 L11.9150682,9.78499513 C10.7532544,10.8852548 10.0920215,12.4028582 10.0819808,13.9921359 L10.0819808,14.0645168 C10.0944905,15.6506472 10.7555258,17.1645345 11.9150682,18.2626099 L11.9150682,18.5476098 Z M16.0395149,18.9999905 C14.8691047,19.0005915 13.7349557,18.5991459 12.8316119,17.8645149 L12.6803822,17.7288007 C11.6170182,16.7850476 11.0097188,15.4398957 11.0097188,14.0283264 C11.0097188,12.616757 11.6170182,11.2716051 12.6803822,10.327852 L12.8316119,10.1921378 C14.5444077,8.79111766 16.9849956,8.66391617 18.8377206,9.87910422 C20.6904455,11.0942923 21.5173095,13.3645904 20.8725724,15.466142 C20.2278353,17.5676936 18.2639178,19.0036763 16.0395149,18.9999905 Z"/>
  </g>
</svg>
