<svg xmlns="http://www.w3.org/2000/svg" width="32" height="32" viewBox="0 0 32 32">
  <path fill="#009688" d="M273.666667,279 C273.666667,275.375 271.444444,272.3125 268.358025,271.125 C270.333333,270.0625 271.691358,267.9375 271.691358,265.4375 C271.691358,261.875 268.851852,259 265.333333,259 C261.814815,259 258.975309,261.875 258.975309,265.4375 C258.975309,267.875 260.333333,270 262.308642,271.125 C259.222222,272.375 257,275.4375 257,279 L258.234568,279 L258.234568,278.6875 C258.234568,275.375 260.45679,272.5625 263.481481,271.75 L263.481481,277.75 L265.333333,278.375 L267.185185,277.75 L267.185185,271.75 C270.209877,272.5625 272.432099,275.375 272.432099,278.6875 L272.432099,279 L273.666667,279 Z M266.259259,277.0625 L265.333333,277.375 L264.407407,277.0625 L264.407407,271.4375 L266.259259,271.4375 L266.259259,277.0625 Z M265.333333,270.6875 C262.493827,270.6875 260.148148,268.3125 260.148148,265.4375 C260.148148,262.5625 262.432099,260.1875 265.333333,260.1875 C268.172839,260.1875 270.518519,262.5625 270.518519,265.4375 C270.45679,268.3125 268.17284,270.6875 265.333333,270.6875 Z" transform="translate(-249 -253)"/>
</svg>
