<svg xmlns="http://www.w3.org/2000/svg" width="14" height="14" viewBox="0 0 14 14">
  <path fill-rule="evenodd" d="M107.324,224 L107.324,225.176 L106.148,225.176 L106.148,224 L107.324,224 Z M107.324,221.676 L107.324,222.824 L106.148,222.824 L106.148,221.676 L107.324,221.676 Z M108.5,226.324 L108.5,220.5 L103.824,220.5 L103.824,221.676 L105,221.676 L105,222.824 L103.824,222.824 L103.824,224 L105,224 L105,225.176 L103.824,225.176 L103.824,226.324 L108.5,226.324 Z M102.648,219.324 L102.648,218.176 L101.5,218.176 L101.5,219.324 L102.648,219.324 Z M102.648,221.676 L102.648,220.5 L101.5,220.5 L101.5,221.676 L102.648,221.676 Z M102.648,224 L102.648,222.824 L101.5,222.824 L101.5,224 L102.648,224 Z M102.648,226.324 L102.648,225.176 L101.5,225.176 L101.5,226.324 L102.648,226.324 Z M100.324,219.324 L100.324,218.176 L99.148,218.176 L99.148,219.324 L100.324,219.324 Z M100.324,221.676 L100.324,220.5 L99.148,220.5 L99.148,221.676 L100.324,221.676 Z M100.324,224 L100.324,222.824 L99.148,222.824 L99.148,224 L100.324,224 Z M100.324,226.324 L100.324,225.176 L99.148,225.176 L99.148,226.324 L100.324,226.324 Z M103.824,219.324 L109.648,219.324 L109.648,227.5 L98,227.5 L98,217 L103.824,217 L103.824,219.324 Z" transform="translate(-97 -215)"/>
</svg>
