<svg xmlns="http://www.w3.org/2000/svg" width="80" height="80" viewBox="0 0 80 80">
  <g fill="none" fill-rule="evenodd" transform="translate(-49 -103)">
    <rect width="80" height="80" x="49" y="103"/>
    <g fill-rule="nonzero" transform="translate(53.923 105.308)">
      <path fill="#2C2F33" d="M68.4769231,18.6615385 L45.1538462,18.6615385 L45.1538462,1.52307692 C45.1538462,0.676923077 44.4769231,0 43.6307692,0 L1.64615385,0 C0.8,0 0.123076923,0.676923077 0.123076923,1.52307692 L0.123076923,73.8307692 C0.123076923,74.6769231 0.8,75.3538462 1.64615385,75.3538462 L43.6307692,75.3538462 L68.4769231,75.3538462 C69.3230769,75.3538462 70,74.6769231 70,73.8307692 L70,20.1846154 C70,19.3384615 69.3230769,18.6615385 68.4769231,18.6615385 Z M42.1076923,20.1846154 L42.1076923,72.3230769 L3.16923077,72.3230769 L3.16923077,3.04615385 L42.1076923,3.04615385 L42.1076923,20.1846154 Z M66.9538462,72.3076923 L45.1538462,72.3076923 L45.1538462,21.6923077 L66.9538462,21.6923077 L66.9538462,72.3076923 Z"/>
      <path fill="#009688" d="M51.0923077 29.4307692L61.0153846 29.4307692C61.8615385 29.4307692 62.5384615 28.7538462 62.5384615 27.9076923 62.5384615 27.0615385 61.8615385 26.3846154 61.0153846 26.3846154L51.0923077 26.3846154C50.2461538 26.3846154 49.5692308 27.0615385 49.5692308 27.9076923 49.5692308 28.7384615 50.2461538 29.4307692 51.0923077 29.4307692zM51.0923077 37.0769231L61.0153846 37.0769231C61.8615385 37.0769231 62.5384615 36.4 62.5384615 35.5538462 62.5384615 34.7076923 61.8615385 34.0307692 61.0153846 34.0307692L51.0923077 34.0307692C50.2461538 34.0307692 49.5692308 34.7076923 49.5692308 35.5538462 49.5692308 36.4 50.2461538 37.0769231 51.0923077 37.0769231zM51.0923077 44.7076923L61.0153846 44.7076923C61.8615385 44.7076923 62.5384615 44.0307692 62.5384615 43.1846154 62.5384615 42.3384615 61.8615385 41.6615385 61.0153846 41.6615385L51.0923077 41.6615385C50.2461538 41.6615385 49.5692308 42.3384615 49.5692308 43.1846154 49.5692308 44.0307692 50.2461538 44.7076923 51.0923077 44.7076923zM51.0923077 52.3538462L61.0153846 52.3538462C61.8615385 52.3538462 62.5384615 51.6769231 62.5384615 50.8307692 62.5384615 49.9846154 61.8615385 49.3076923 61.0153846 49.3076923L51.0923077 49.3076923C50.2461538 49.3076923 49.5692308 49.9846154 49.5692308 50.8307692 49.5692308 51.6769231 50.2461538 52.3538462 51.0923077 52.3538462zM51.0923077 59.9846154L61.0153846 59.9846154C61.8615385 59.9846154 62.5384615 59.3076923 62.5384615 58.4615385 62.5384615 57.6153846 61.8615385 56.9384615 61.0153846 56.9384615L51.0923077 56.9384615C50.2461538 56.9384615 49.5692308 57.6153846 49.5692308 58.4615385 49.5692308 59.2923077 50.2461538 59.9846154 51.0923077 59.9846154zM51.0923077 67.6307692L61.0153846 67.6307692C61.8615385 67.6307692 62.5384615 66.9538462 62.5384615 66.1076923 62.5384615 65.2615385 61.8615385 64.5846154 61.0153846 64.5846154L51.0923077 64.5846154C50.2461538 64.5846154 49.5692308 65.2615385 49.5692308 66.1076923 49.5692308 66.9538462 50.2461538 67.6307692 51.0923077 67.6307692z"/>
      <path fill="#2C2F33" d="M10.2307692 14.9230769C11.0769231 14.9230769 11.7538462 14.2461538 11.7538462 13.4L11.7538462 10.0307692C11.7538462 9.18461538 11.0769231 8.50769231 10.2307692 8.50769231 9.38461538 8.50769231 8.70769231 9.18461538 8.70769231 10.0307692L8.70769231 13.4C8.70769231 14.2461538 9.38461538 14.9230769 10.2307692 14.9230769zM18.5076923 14.9230769C19.3538462 14.9230769 20.0307692 14.2461538 20.0307692 13.4L20.0307692 10.0307692C20.0307692 9.18461538 19.3538462 8.50769231 18.5076923 8.50769231 17.6615385 8.50769231 16.9846154 9.18461538 16.9846154 10.0307692L16.9846154 13.4C16.9846154 14.2461538 17.6615385 14.9230769 18.5076923 14.9230769zM26.7692308 14.9230769C27.6153846 14.9230769 28.2923077 14.2461538 28.2923077 13.4L28.2923077 10.0307692C28.2923077 9.18461538 27.6153846 8.50769231 26.7692308 8.50769231 25.9230769 8.50769231 25.2461538 9.18461538 25.2461538 10.0307692L25.2461538 13.4C25.2461538 14.2461538 25.9384615 14.9230769 26.7692308 14.9230769zM35.0461538 14.9230769C35.8923077 14.9230769 36.5692308 14.2461538 36.5692308 13.4L36.5692308 10.0307692C36.5692308 9.18461538 35.8923077 8.50769231 35.0461538 8.50769231 34.2 8.50769231 33.5230769 9.18461538 33.5230769 10.0307692L33.5230769 13.4C33.5230769 14.2461538 34.2 14.9230769 35.0461538 14.9230769zM10.2307692 25.3538462C11.0769231 25.3538462 11.7538462 24.6769231 11.7538462 23.8307692L11.7538462 20.4461538C11.7538462 19.6 11.0769231 18.9230769 10.2307692 18.9230769 9.38461538 18.9230769 8.70769231 19.6 8.70769231 20.4461538L8.70769231 23.8307692C8.70769231 24.6615385 9.38461538 25.3538462 10.2307692 25.3538462zM18.5076923 25.3538462C19.3538462 25.3538462 20.0307692 24.6769231 20.0307692 23.8307692L20.0307692 20.4461538C20.0307692 19.6 19.3538462 18.9230769 18.5076923 18.9230769 17.6615385 18.9230769 16.9846154 19.6 16.9846154 20.4461538L16.9846154 23.8307692C16.9846154 24.6615385 17.6615385 25.3538462 18.5076923 25.3538462zM26.7692308 25.3538462C27.6153846 25.3538462 28.2923077 24.6769231 28.2923077 23.8307692L28.2923077 20.4461538C28.2923077 19.6 27.6153846 18.9230769 26.7692308 18.9230769 25.9230769 18.9230769 25.2461538 19.6 25.2461538 20.4461538L25.2461538 23.8307692C25.2461538 24.6615385 25.9384615 25.3538462 26.7692308 25.3538462zM35.0461538 25.3538462C35.8923077 25.3538462 36.5692308 24.6769231 36.5692308 23.8307692L36.5692308 20.4461538C36.5692308 19.6 35.8923077 18.9230769 35.0461538 18.9230769 34.2 18.9230769 33.5230769 19.6 33.5230769 20.4461538L33.5230769 23.8307692C33.5230769 24.6615385 34.2 25.3538462 35.0461538 25.3538462zM10.2307692 35.7692308C11.0769231 35.7692308 11.7538462 35.0923077 11.7538462 34.2461538L11.7538462 30.8769231C11.7538462 30.0307692 11.0769231 29.3538462 10.2307692 29.3538462 9.38461538 29.3538462 8.70769231 30.0307692 8.70769231 30.8769231L8.70769231 34.2461538C8.70769231 35.0923077 9.38461538 35.7692308 10.2307692 35.7692308zM18.5076923 35.7692308C19.3538462 35.7692308 20.0307692 35.0923077 20.0307692 34.2461538L20.0307692 30.8769231C20.0307692 30.0307692 19.3538462 29.3538462 18.5076923 29.3538462 17.6615385 29.3538462 16.9846154 30.0307692 16.9846154 30.8769231L16.9846154 34.2461538C16.9846154 35.0923077 17.6615385 35.7692308 18.5076923 35.7692308zM26.7692308 35.7692308C27.6153846 35.7692308 28.2923077 35.0923077 28.2923077 34.2461538L28.2923077 30.8769231C28.2923077 30.0307692 27.6153846 29.3538462 26.7692308 29.3538462 25.9230769 29.3538462 25.2461538 30.0307692 25.2461538 30.8769231L25.2461538 34.2461538C25.2461538 35.0923077 25.9384615 35.7692308 26.7692308 35.7692308zM35.0461538 35.7692308C35.8923077 35.7692308 36.5692308 35.0923077 36.5692308 34.2461538L36.5692308 30.8769231C36.5692308 30.0307692 35.8923077 29.3538462 35.0461538 29.3538462 34.2 29.3538462 33.5230769 30.0307692 33.5230769 30.8769231L33.5230769 34.2461538C33.5230769 35.0923077 34.2 35.7692308 35.0461538 35.7692308zM10.2307692 46.2C11.0769231 46.2 11.7538462 45.5230769 11.7538462 44.6769231L11.7538462 41.3076923C11.7538462 40.4615385 11.0769231 39.7846154 10.2307692 39.7846154 9.38461538 39.7846154 8.70769231 40.4615385 8.70769231 41.3076923L8.70769231 44.6769231C8.70769231 45.5076923 9.38461538 46.2 10.2307692 46.2zM18.5076923 46.2C19.3538462 46.2 20.0307692 45.5230769 20.0307692 44.6769231L20.0307692 41.3076923C20.0307692 40.4615385 19.3538462 39.7846154 18.5076923 39.7846154 17.6615385 39.7846154 16.9846154 40.4615385 16.9846154 41.3076923L16.9846154 44.6769231C16.9846154 45.5076923 17.6615385 46.2 18.5076923 46.2zM26.7692308 46.2C27.6153846 46.2 28.2923077 45.5230769 28.2923077 44.6769231L28.2923077 41.3076923C28.2923077 40.4615385 27.6153846 39.7846154 26.7692308 39.7846154 25.9230769 39.7846154 25.2461538 40.4615385 25.2461538 41.3076923L25.2461538 44.6769231C25.2461538 45.5076923 25.9384615 46.2 26.7692308 46.2zM35.0461538 46.2C35.8923077 46.2 36.5692308 45.5230769 36.5692308 44.6769231L36.5692308 41.3076923C36.5692308 40.4615385 35.8923077 39.7846154 35.0461538 39.7846154 34.2 39.7846154 33.5230769 40.4615385 33.5230769 41.3076923L33.5230769 44.6769231C33.5230769 45.5076923 34.2 46.2 35.0461538 46.2zM10.2307692 56.6153846C11.0769231 56.6153846 11.7538462 55.9384615 11.7538462 55.0923077L11.7538462 51.7230769C11.7538462 50.8769231 11.0769231 50.2 10.2307692 50.2 9.38461538 50.2 8.70769231 50.8769231 8.70769231 51.7230769L8.70769231 55.0923077C8.70769231 55.9384615 9.38461538 56.6153846 10.2307692 56.6153846zM18.5076923 56.6153846C19.3538462 56.6153846 20.0307692 55.9384615 20.0307692 55.0923077L20.0307692 51.7230769C20.0307692 50.8769231 19.3538462 50.2 18.5076923 50.2 17.6615385 50.2 16.9846154 50.8769231 16.9846154 51.7230769L16.9846154 55.0923077C16.9846154 55.9384615 17.6615385 56.6153846 18.5076923 56.6153846zM26.7692308 56.6153846C27.6153846 56.6153846 28.2923077 55.9384615 28.2923077 55.0923077L28.2923077 51.7230769C28.2923077 50.8769231 27.6153846 50.2 26.7692308 50.2 25.9230769 50.2 25.2461538 50.8769231 25.2461538 51.7230769L25.2461538 55.0923077C25.2461538 55.9384615 25.9384615 56.6153846 26.7692308 56.6153846zM35.0461538 56.6153846C35.8923077 56.6153846 36.5692308 55.9384615 36.5692308 55.0923077L36.5692308 51.7230769C36.5692308 50.8769231 35.8923077 50.2 35.0461538 50.2 34.2 50.2 33.5230769 50.8769231 33.5230769 51.7230769L33.5230769 55.0923077C33.5230769 55.9384615 34.2 56.6153846 35.0461538 56.6153846zM10.2307692 67.0461538C11.0769231 67.0461538 11.7538462 66.3692308 11.7538462 65.5230769L11.7538462 62.1384615C11.7538462 61.2923077 11.0769231 60.6153846 10.2307692 60.6153846 9.38461538 60.6153846 8.70769231 61.2923077 8.70769231 62.1384615L8.70769231 65.5230769C8.70769231 66.3538462 9.38461538 67.0461538 10.2307692 67.0461538zM18.5076923 67.0461538C19.3538462 67.0461538 20.0307692 66.3692308 20.0307692 65.5230769L20.0307692 62.1384615C20.0307692 61.2923077 19.3538462 60.6153846 18.5076923 60.6153846 17.6615385 60.6153846 16.9846154 61.2923077 16.9846154 62.1384615L16.9846154 65.5230769C16.9846154 66.3538462 17.6615385 67.0461538 18.5076923 67.0461538zM26.7692308 67.0461538C27.6153846 67.0461538 28.2923077 66.3692308 28.2923077 65.5230769L28.2923077 62.1384615C28.2923077 61.2923077 27.6153846 60.6153846 26.7692308 60.6153846 25.9230769 60.6153846 25.2461538 61.2923077 25.2461538 62.1384615L25.2461538 65.5230769C25.2461538 66.3538462 25.9384615 67.0461538 26.7692308 67.0461538zM35.0461538 67.0461538C35.8923077 67.0461538 36.5692308 66.3692308 36.5692308 65.5230769L36.5692308 62.1384615C36.5692308 61.2923077 35.8923077 60.6153846 35.0461538 60.6153846 34.2 60.6153846 33.5230769 61.2923077 33.5230769 62.1384615L33.5230769 65.5230769C33.5230769 66.3538462 34.2 67.0461538 35.0461538 67.0461538z"/>
    </g>
  </g>
</svg>
