<svg xmlns="http://www.w3.org/2000/svg" width="80" height="80" viewBox="0 0 80 80">
  <g fill="none" fill-rule="evenodd" transform="translate(-319 -103)">
    <rect width="80" height="80" x="319" y="103"/>
    <g fill-rule="nonzero" transform="translate(321.308 109.462)">
      <path fill="#2C2F33" d="M26.2307692,42.1846154 C24.7692308,43.3846154 23.9230769,45.1846154 23.9230769,47.0923077 L23.9230769,53.9076923 C23.9230769,54.7538462 24.6,55.4307692 25.4461538,55.4307692 C26.2923077,55.4307692 26.9692308,54.7538462 26.9692308,53.9076923 L26.9692308,47.0923077 C26.9692308,46.0923077 27.4,45.1692308 28.1692308,44.5384615 C34.2153846,39.5692308 40.7846154,36.2615385 42.0307692,35.6461538 C42.7076923,35.3230769 43.1384615,34.6307692 43.1384615,33.8769231 L43.1384615,24.2769231 C43.1384615,23.7692308 42.8769231,23.2923077 42.4615385,23.0153846 C41.6307692,22.4615385 41.1384615,21.5384615 41.1384615,20.5538462 L41.1384615,10.6 C41.1384615,6.49230769 44.4769231,3.15384615 48.5846154,3.15384615 L50.7230769,3.15384615 C54.8307692,3.15384615 58.1692308,6.49230769 58.1692308,10.6 L58.1692308,20.5538462 C58.1692308,21.5384615 57.6769231,22.4615385 56.8461538,23.0153846 C56.4153846,23.2923077 56.1692308,23.7692308 56.1692308,24.2769231 L56.1692308,33.8615385 C56.1692308,34.6153846 56.6,35.3076923 57.2769231,35.6307692 C58.5384615,36.2461538 65.0923077,39.5538462 71.1384615,44.5230769 C71.8923077,45.1538462 72.3384615,46.0769231 72.3384615,47.0769231 L72.3384615,53.8923077 C72.3384615,54.7384615 73.0153846,55.4153846 73.8615385,55.4153846 C74.7076923,55.4153846 75.3846154,54.7384615 75.3846154,53.8923077 L75.3846154,47.0769231 C75.3846154,45.1692308 74.5384615,43.3846154 73.0769231,42.1692308 C67.4461538,37.5384615 61.3846154,34.2923077 59.2153846,33.1846154 L59.2153846,25 C60.4769231,23.8615385 61.2153846,22.2461538 61.2153846,20.5230769 L61.2153846,10.5692308 C61.2153846,4.78461538 56.5076923,0.0769230769 50.7230769,0.0769230769 L48.5846154,0.0769230769 C42.8,0.0769230769 38.0923077,4.78461538 38.0923077,10.5692308 L38.0923077,20.5230769 C38.0923077,22.2461538 38.8307692,23.8615385 40.0923077,25 L40.0923077,33.1846154 C37.9230769,34.2923077 31.8769231,37.5538462 26.2307692,42.1846154 Z"/>
      <path fill="#2C2F33" d="M22.1076923,9.8 L20.3692308,9.8 C15.5076923,9.8 11.5384615,13.7538462 11.5384615,18.6307692 L11.5384615,26.7384615 C11.5384615,28.1846154 12.1384615,29.5384615 13.1692308,30.5076923 L13.1692308,36.8769231 C11.2769231,37.8461538 6.46153846,40.4615385 1.98461538,44.1384615 C0.723076923,45.1692308 0,46.7076923 0,48.3538462 L0,53.9076923 C0,54.7538462 0.676923077,55.4307692 1.52307692,55.4307692 C2.36923077,55.4307692 3.04615385,54.7538462 3.04615385,53.9076923 L3.04615385,48.3538462 C3.04615385,47.6307692 3.36923077,46.9538462 3.92307692,46.4923077 C8.83076923,42.4615385 14.1384615,39.7846154 15.1692308,39.2769231 C15.8153846,38.9692308 16.2307692,38.2923077 16.2307692,37.5846154 L16.2307692,29.7692308 C16.2307692,29.2615385 15.9692308,28.7846154 15.5538462,28.5076923 C14.9538462,28.1076923 14.6,27.4461538 14.6,26.7384615 L14.6,18.6307692 C14.6,15.4461538 17.2,12.8461538 20.3846154,12.8461538 L22.1230769,12.8461538 C25.3076923,12.8461538 27.9076923,15.4461538 27.9076923,18.6307692 L27.9076923,26.7384615 C27.9076923,27.4461538 27.5538462,28.1076923 26.9538462,28.5076923 C26.5230769,28.7846154 26.2769231,29.2615385 26.2769231,29.7692308 L26.2769231,36.1846154 C26.2769231,37.0307692 26.9538462,37.7076923 27.8,37.7076923 C28.6461538,37.7076923 29.3230769,37.0307692 29.3230769,36.1846154 L29.3230769,30.5076923 C30.3538462,29.5384615 30.9538462,28.1846154 30.9538462,26.7384615 L30.9538462,18.6307692 C30.9384615,13.7538462 26.9846154,9.8 22.1076923,9.8 Z"/>
      <path fill="#009688" d="M52.9538462,35.0923077 C52.1076923,35.0923077 51.4307692,35.7692308 51.4307692,36.6153846 C51.4307692,37.6 50.6307692,38.3846154 49.6615385,38.3846154 C49.2923077,38.3846154 48.9538462,38.2769231 48.6769231,38.0769231 C48.6153846,38.0153846 48.5384615,37.9538462 48.4615385,37.9076923 C48.1076923,37.5846154 47.8923077,37.1230769 47.8923077,36.6 C47.8923077,35.7538462 47.2153846,35.0769231 46.3692308,35.0769231 C45.5230769,35.0769231 44.8461538,35.7538462 44.8461538,36.6 C44.8461538,37.8307692 45.3076923,38.9384615 46.0615385,39.8 L45.0307692,62.5076923 C45.0153846,62.9692308 45.2,63.4 45.5384615,63.7076923 L48.7538462,66.6 C49.0461538,66.8615385 49.4153846,67 49.7692308,67 C50.1384615,67 50.4923077,66.8769231 50.7846154,66.6153846 L53.9538462,63.7692308 C54.2923077,63.4615385 54.4769231,63.0307692 54.4615385,62.5692308 L53.4769231,39.5846154 C54.1230769,38.7692308 54.5076923,37.7384615 54.5076923,36.6307692 C54.4769231,35.7846154 53.7846154,35.0923077 52.9538462,35.0923077 Z M49.7538462,63.4461538 L48.0923077,61.9538462 L49.0153846,41.4153846 C49.2153846,41.4461538 49.4307692,41.4615385 49.6307692,41.4615385 C49.9076923,41.4615385 50.1846154,41.4307692 50.4615385,41.3846154 L51.3538462,62 L49.7538462,63.4461538 Z"/>
    </g>
  </g>
</svg>
