<svg xmlns="http://www.w3.org/2000/svg" width="14" height="14" viewBox="0 0 14 14">
  <path fill-rule="evenodd" d="M128.676,222.25 C129.245336,222.25 129.879997,222.338666 130.58,222.516 C131.364004,222.712001 131.998664,222.973332 132.484,223.3 C133.06267,223.692002 133.352,224.125998 133.352,224.602 L133.352,226.352 L124,226.352 L124,224.602 C124,224.125998 124.28933,223.692002 124.868,223.3 C125.353336,222.973332 125.987996,222.712001 126.772,222.516 C127.472003,222.338666 128.106664,222.25 128.676,222.25 Z M128.676,217 C129.096002,217 129.483332,217.104999 129.838,217.315 C130.192668,217.525001 130.474999,217.811998 130.685,218.176 C130.895001,218.540002 131,218.931998 131,219.352 C131,219.772002 130.895001,220.159332 130.685,220.514 C130.474999,220.868668 130.192668,221.150999 129.838,221.361 C129.483332,221.571001 129.096002,221.676 128.676,221.676 C128.255998,221.676 127.868668,221.571001 127.514,221.361 C127.159332,221.150999 126.877001,220.868668 126.667,220.514 C126.456999,220.159332 126.352,219.772002 126.352,219.352 C126.352,218.931998 126.456999,218.540002 126.667,218.176 C126.877001,217.811998 127.159332,217.525001 127.514,217.315 C127.868668,217.104999 128.255998,217 128.676,217 Z M128.676,223.37 C128.143997,223.37 127.579336,223.449333 126.982,223.608 C126.468664,223.748001 126.030002,223.915999 125.666,224.112 C125.301998,224.308001 125.12,224.471333 125.12,224.602 L125.12,225.232 L132.232,225.232 L132.232,224.602 C132.232,224.471333 132.050002,224.308001 131.686,224.112 C131.321998,223.915999 130.883336,223.748001 130.37,223.608 C129.772664,223.449333 129.208003,223.37 128.676,223.37 Z M128.676,218.12 C128.330665,218.12 128.039001,218.238999 127.801,218.477 C127.562999,218.715001 127.444,219.006665 127.444,219.352 C127.444,219.697335 127.562999,219.984332 127.801,220.213 C128.039001,220.441668 128.330665,220.556 128.676,220.556 C129.021335,220.556 129.312999,220.441668 129.551,220.213 C129.789001,219.984332 129.908,219.697335 129.908,219.352 C129.908,219.006665 129.789001,218.715001 129.551,218.477 C129.312999,218.238999 129.021335,218.12 128.676,218.12 Z" transform="translate(-121 -215)"/>
</svg>
