<svg xmlns="http://www.w3.org/2000/svg" width="14" height="14" viewBox="0 0 14 14">
  <path fill-rule="evenodd" d="M176.074,221.516 C176.335335,221.516 176.577999,221.450667 176.802,221.32 C177.026001,221.189333 177.203333,221.014334 177.334,220.795 C177.464667,220.575666 177.53,220.335335 177.53,220.074 C177.53,219.812665 177.464667,219.570001 177.334,219.346 C177.203333,219.121999 177.026001,218.944667 176.802,218.814 C176.577999,218.683333 176.335335,218.618 176.074,218.618 C175.812665,218.618 175.572334,218.683333 175.353,218.814 C175.133666,218.944667 174.958667,219.121999 174.828,219.346 C174.697333,219.570001 174.632,219.812665 174.632,220.074 C174.632,220.475335 174.771999,220.815999 175.052,221.096 C175.332001,221.376001 175.672665,221.516 176.074,221.516 Z M176.074,216 C176.82067,216 177.506664,216.181998 178.132,216.546 C178.748003,216.910002 179.237998,217.399997 179.602,218.016 C179.966002,218.641336 180.148,219.32733 180.148,220.074 C180.148,220.643336 180.008001,221.296663 179.728,222.034 C179.485332,222.659336 179.149335,223.335996 178.72,224.064 C178.365332,224.64267 177.959336,225.244664 177.502,225.87 C177.184665,226.308669 176.848668,226.737998 176.494,227.158 L176.074,227.648 L175.654,227.158 C175.299332,226.737998 174.963335,226.308669 174.646,225.87 C174.188664,225.244664 173.782668,224.64267 173.428,224.064 C172.998665,223.335996 172.662668,222.659336 172.42,222.034 C172.139999,221.296663 172,220.643336 172,220.074 C172,219.32733 172.181998,218.641336 172.546,218.016 C172.910002,217.399997 173.399997,216.910002 174.016,216.546 C174.641336,216.181998 175.32733,216 176.074,216 Z" transform="translate(-169 -215)"/>
</svg>
