<svg xmlns="http://www.w3.org/2000/svg" width="80" height="80" viewBox="0 0 80 80">
  <g fill="none" fill-rule="evenodd" transform="translate(-139 -103)">
    <rect width="80" height="80" x="139" y="103"/>
    <g fill-rule="nonzero" transform="translate(147.308 105.154)">
      <path fill="#2C2F33" d="M53.0436923,19.3384615 L50.2436923,23.1846154 L47.4436923,19.3384615 C47.0283077,18.7692308 46.2898462,18.5538462 45.6436923,18.8153846 C45.536,18.8615385 43.1513846,19.8307692 40.9052308,21.3384615 C38.6436923,19.8307692 36.2744615,18.8615385 36.1667692,18.8153846 C35.5206154,18.5538462 34.7821538,18.7692308 34.3667692,19.3384615 L31.5667692,23.1846154 L28.7667692,19.3384615 C28.3513846,18.7692308 27.6129231,18.5538462 26.9667692,18.8153846 C26.8590769,18.8615385 24.4744615,19.8307692 22.2283077,21.3384615 C19.9667692,19.8307692 17.5821538,18.8615385 17.4898462,18.8153846 C16.8436923,18.5538462 16.1052308,18.7692308 15.6898462,19.3384615 L12.8898462,23.1846154 L10.0898462,19.3384615 C9.67446154,18.7692308 8.936,18.5538462 8.28984615,18.8153846 C8.16676923,18.8615385 5.24369231,20.0461538 2.81292308,21.8461538 C2.12061538,22.3538462 1.79753846,22.6769231 1.22830769,23.2461538 C-0.894769231,25.3692308 0.289846154,34.1230769 0.828307692,36.1384615 C1.56676923,38.8461538 3.536,42.4769231 3.84369231,43.0307692 C4.19753846,43.8615385 4.42830769,44.7384615 4.52061538,45.6307692 L7.28984615,72.8615385 C7.45907692,74.5076923 8.82830769,75.7538462 10.4898462,75.7538462 L15.2898462,75.7538462 C16.9513846,75.7538462 18.3206154,74.5076923 18.4898462,72.8615385 L21.2590769,45.6307692 C21.3513846,44.7384615 21.5821538,43.8615385 21.936,43.0307692 C21.9821538,42.9384615 22.0898462,42.7538462 22.2283077,42.4923077 C22.3667692,42.7538462 22.4744615,42.9384615 22.5206154,43.0307692 C22.8744615,43.8615385 23.1052308,44.7384615 23.1975385,45.6307692 L25.9667692,72.8615385 C26.136,74.5076923 27.5052308,75.7538462 29.1667692,75.7538462 L33.9667692,75.7538462 C35.6283077,75.7538462 36.9975385,74.5076923 37.1667692,72.8615385 L39.936,45.6307692 C40.0283077,44.7384615 40.2590769,43.8615385 40.6129231,43.0307692 C40.6590769,42.9384615 40.7667692,42.7384615 40.9052308,42.4923077 C41.0436923,42.7538462 41.1513846,42.9384615 41.1975385,43.0307692 C41.5513846,43.8615385 41.7821538,44.7384615 41.8744615,45.6307692 L44.6436923,72.8615385 C44.8129231,74.5076923 46.1821538,75.7538462 47.8436923,75.7538462 L52.6436923,75.7538462 C54.3052308,75.7538462 55.6744615,74.5076923 55.8436923,72.8615385 L58.6129231,45.6307692 C58.7052308,44.7384615 58.936,43.8615385 59.2898462,43.0307692 C59.5975385,42.4769231 61.5667692,38.8461538 62.3052308,36.1384615 C62.8590769,34.1230769 64.0283077,25.3538462 61.9052308,23.2461538 C61.336,22.6769231 61.0129231,22.3538462 60.3206154,21.8461538 C57.8744615,20.0461538 54.9667692,18.8615385 54.8436923,18.8153846 C54.1975385,18.5692308 53.4590769,18.7692308 53.0436923,19.3384615 Z M19.2129231,41.6307692 C19.1975385,41.6769231 19.1667692,41.7076923 19.1513846,41.7538462 C18.6436923,42.8923077 18.336,44.0923077 18.2129231,45.3384615 L15.4436923,72.5692308 C15.4283077,72.6615385 15.3667692,72.7230769 15.2744615,72.7230769 L10.4744615,72.7230769 C10.3821538,72.7230769 10.3052308,72.6615385 10.3052308,72.5692308 L7.536,45.3384615 C7.41292308,44.1076923 7.08984615,42.8923077 6.59753846,41.7538462 C6.58215385,41.7076923 6.55138462,41.6615385 6.536,41.6307692 C6.52061538,41.6 4.44369231,37.8769231 3.76676923,35.3538462 C3.01292308,32.5692308 2.79753846,26.4615385 3.41292308,25.3692308 C3.90523077,24.8769231 4.12061538,24.6769231 4.61292308,24.3076923 C5.88984615,23.3692308 7.38215385,22.6 8.35138462,22.1230769 L11.6590769,26.6769231 C11.9513846,27.0769231 12.3975385,27.3076923 12.8898462,27.3076923 C13.3821538,27.3076923 13.8283077,27.0769231 14.1206154,26.6769231 L17.4283077,22.1230769 C18.0590769,22.4307692 18.9206154,22.8615385 19.7821538,23.3846154 C17.8283077,25.7076923 18.9667692,34.1692308 19.5052308,36.1538462 C19.7513846,37.0615385 20.136,38.0769231 20.5513846,39.0461538 C19.8590769,40.4769231 19.2283077,41.6153846 19.2129231,41.6307692 Z M40.6898462,35.3538462 C40.0129231,37.8615385 37.936,41.5846154 37.9206154,41.6307692 C37.9052308,41.6769231 37.8744615,41.7076923 37.8590769,41.7538462 C37.3513846,42.8923077 37.0436923,44.0923077 36.9206154,45.3384615 L34.1513846,72.5692308 C34.136,72.6615385 34.0744615,72.7230769 33.9821538,72.7230769 L29.1821538,72.7230769 C29.0898462,72.7230769 29.0129231,72.6615385 29.0129231,72.5692308 L26.2436923,45.3384615 C26.1206154,44.1076923 25.7975385,42.8923077 25.3052308,41.7538462 C25.2898462,41.7076923 25.2590769,41.6615385 25.2436923,41.6307692 C25.2283077,41.6 23.1513846,37.8769231 22.4744615,35.3538462 C21.7206154,32.5692308 21.5052308,26.4615385 22.1206154,25.3692308 C22.6129231,24.8769231 22.8283077,24.6769231 23.3206154,24.3076923 C24.5975385,23.3692308 26.0898462,22.6 27.0590769,22.1230769 L30.3667692,26.6769231 C30.6590769,27.0769231 31.1052308,27.3076923 31.5975385,27.3076923 C32.0898462,27.3076923 32.536,27.0769231 32.8283077,26.6769231 L36.136,22.1230769 C37.1052308,22.5846154 38.5821538,23.3538462 39.8744615,24.3076923 C40.3667692,24.6769231 40.5821538,24.8769231 41.0744615,25.3692308 C41.6590769,26.4615385 41.4436923,32.5692308 40.6898462,35.3538462 Z M59.7206154,25.3692308 C60.336,26.4615385 60.136,32.5692308 59.3667692,35.3538462 C58.6898462,37.8615385 56.6129231,41.5846154 56.5975385,41.6307692 C56.5821538,41.6769231 56.5513846,41.7076923 56.536,41.7538462 C56.0283077,42.8923077 55.7206154,44.0923077 55.5975385,45.3384615 L52.8283077,72.5692308 C52.8129231,72.6615385 52.7513846,72.7230769 52.6590769,72.7230769 L47.8590769,72.7230769 C47.7667692,72.7230769 47.6898462,72.6615385 47.6898462,72.5692308 L44.9206154,45.3384615 C44.7975385,44.1076923 44.4744615,42.8923077 43.9821538,41.7538462 C43.9667692,41.7076923 43.936,41.6615385 43.9206154,41.6307692 C43.9206154,41.6153846 43.2898462,40.4923077 42.5975385,39.0461538 C43.0129231,38.0769231 43.3975385,37.0615385 43.6436923,36.1538462 C44.1821538,34.1846154 45.3206154,25.7230769 43.3667692,23.3846154 C44.2436923,22.8615385 45.0898462,22.4307692 45.7206154,22.1230769 L49.0283077,26.6769231 C49.3206154,27.0769231 49.7667692,27.3076923 50.2590769,27.3076923 C50.7513846,27.3076923 51.1975385,27.0769231 51.4898462,26.6769231 L54.7975385,22.1230769 C55.7667692,22.5846154 57.2436923,23.3538462 58.536,24.3076923 C59.0283077,24.6769231 59.2283077,24.8769231 59.7206154,25.3692308 Z"/>
      <path fill="#009688" d="M45.4129231 14.8923077C46.5667692 16.2 48.1821538 16.9076923 50.1052308 16.9538462 50.136 16.9538462 50.1821538 16.9538462 50.2129231 16.9538462 50.2283077 16.9538462 50.2744615 16.9538462 50.2898462 16.9538462 50.3206154 16.9538462 50.3513846 16.9538462 50.3821538 16.9538462 52.3052308 16.9076923 53.9206154 16.2 55.0898462 14.8923077 57.5513846 12.1230769 57.1975385 7.50769231 57.136 6.92307692 56.8898462 1.83076923 53.336.0153846154 50.3821538.0153846154 50.336.0153846154 50.2898462.0153846154 50.2436923.0153846154 50.2129231.0153846154 50.1667692.0153846154 50.1052308.0153846154 47.1513846.0153846154 43.5975385 1.83076923 43.3513846 6.92307692 43.3052308 7.49230769 42.9513846 12.1230769 45.4129231 14.8923077zM46.3975385 7.2C46.3975385 7.16923077 46.3975385 7.13846154 46.3975385 7.10769231 46.5667692 3.58461538 48.7975385 3.06153846 50.1052308 3.06153846L50.1821538 3.06153846C50.2283077 3.06153846 50.2590769 3.06153846 50.3052308 3.06153846L50.3821538 3.06153846C51.7052308 3.06153846 53.936 3.58461538 54.0898462 7.10769231 54.0898462 7.13846154 54.0898462 7.16923077 54.0898462 7.2 54.1975385 8.24615385 54.1821538 11.3230769 52.7821538 12.8769231 52.1821538 13.5538462 51.3513846 13.8923077 50.2590769 13.9076923 50.2436923 13.9076923 50.2283077 13.9076923 50.2129231 13.9076923 49.1206154 13.8923077 48.2898462 13.5538462 47.6744615 12.8769231 46.3052308 11.3076923 46.2898462 8.24615385 46.3975385 7.2zM12.7206154 16.9384615C12.7513846 16.9384615 12.7821538 16.9384615 12.8129231 16.9384615 12.8283077 16.9384615 12.8744615 16.9384615 12.8898462 16.9384615 12.9206154 16.9384615 12.9667692 16.9384615 12.9975385 16.9384615 14.9052308 16.8923077 16.5206154 16.1846154 17.6898462 14.8769231 20.1513846 12.1076923 19.7975385 7.49230769 19.736 6.90769231 19.4898462 1.81538462 15.936-7.10542736e-15 12.9821538-7.10542736e-15 12.936-7.10542736e-15 12.8898462-7.10542736e-15 12.8436923-7.10542736e-15 12.8129231-7.10542736e-15 12.7667692-7.10542736e-15 12.7052308-7.10542736e-15 9.75138462-7.10542736e-15 6.19753846 1.81538462 5.95138462 6.90769231 5.88984615 7.47692308 5.536 12.1076923 7.99753846 14.8769231 9.18215385 16.2 10.8129231 16.9076923 12.7206154 16.9384615zM9.01292308 7.2C9.01292308 7.16923077 9.01292308 7.13846154 9.01292308 7.10769231 9.16676923 3.58461538 11.4129231 3.06153846 12.7206154 3.06153846L12.7975385 3.06153846C12.8436923 3.06153846 12.8744615 3.06153846 12.9206154 3.06153846L12.9975385 3.06153846C14.3206154 3.06153846 16.5513846 3.58461538 16.7052308 7.10769231 16.7052308 7.13846154 16.7052308 7.16923077 16.7052308 7.2 16.7052308 7.23076923 17.0590769 11 15.4129231 12.8615385 14.8129231 13.5384615 13.9821538 13.8769231 12.8744615 13.8923077 12.8590769 13.8923077 12.8436923 13.8923077 12.8283077 13.8923077 11.736 13.8769231 10.9052308 13.5384615 10.3052308 12.8615385 8.92061538 11.3076923 8.88984615 8.24615385 9.01292308 7.2zM31.3975385 16.9384615C31.4283077 16.9384615 31.4744615 16.9384615 31.5052308 16.9384615 31.5206154 16.9384615 31.5667692 16.9384615 31.5821538 16.9384615 31.6129231 16.9384615 31.6436923 16.9384615 31.6744615 16.9384615 33.5975385 16.8923077 35.2129231 16.1846154 36.3821538 14.8769231 38.8436923 12.1076923 38.4898462 7.49230769 38.4283077 6.90769231 38.1821538 1.81538462 34.6283077-7.10542736e-15 31.6744615-7.10542736e-15 31.6283077-7.10542736e-15 31.5821538-7.10542736e-15 31.536-7.10542736e-15 31.5052308-7.10542736e-15 31.4590769-7.10542736e-15 31.3975385-7.10542736e-15 28.4436923-7.10542736e-15 24.8898462 1.81538462 24.6436923 6.90769231 24.5821538 7.47692308 24.2283077 12.1076923 26.6898462 14.8769231 27.8744615 16.1846154 29.4898462 16.9076923 31.3975385 16.9384615zM27.7052308 7.2C27.7052308 7.16923077 27.7052308 7.13846154 27.7052308 7.10769231 27.8744615 3.58461538 30.1052308 3.06153846 31.4129231 3.06153846L31.4898462 3.06153846C31.536 3.06153846 31.5667692 3.06153846 31.6129231 3.06153846L31.6898462 3.06153846C33.0129231 3.06153846 35.2436923 3.58461538 35.3975385 7.10769231 35.3975385 7.13846154 35.3975385 7.16923077 35.3975385 7.2 35.3975385 7.23076923 35.7513846 11 34.1052308 12.8615385 33.5052308 13.5384615 32.6744615 13.8769231 31.5667692 13.8923077 31.5513846 13.8923077 31.536 13.8923077 31.5206154 13.8923077 30.4283077 13.8769231 29.5975385 13.5384615 28.9821538 12.8615385 27.6129231 11.3076923 27.5975385 8.24615385 27.7052308 7.2z"/>
    </g>
  </g>
</svg>
