<svg xmlns="http://www.w3.org/2000/svg" width="32" height="32" viewBox="0 0 32 32">
  <g fill="#009688" transform="translate(6 6)">
    <path d="M7.50343125,11.2436207 L8.75794227,11.2436207 L8.75794227,12.4977413 L7.50343125,12.4977413 L7.50343125,11.2436207 Z M7.50343125,7.47735209 L8.75794227,7.47735209 L8.75794227,8.73147266 L7.50343125,8.73147266 L7.50343125,7.47735209 Z M3.73599004,7.47735209 L4.99050106,7.47735209 L4.99050106,8.73147266 L3.73599004,8.73147266 L3.73599004,7.47735209 Z M3.73599004,3.71108344 L4.99050106,3.71108344 L4.99050106,4.96520401 L3.73599004,4.96520401 L3.73599004,3.71108344 Z M3.73599004,11.2436207 L4.99050106,11.2436207 L4.99050106,12.4977413 L3.73599004,12.4977413 L3.73599004,11.2436207 Z M15.0344055,11.2436207 L16.2889166,11.2436207 L16.2889166,12.4977413 L15.0344055,12.4977413 L15.0344055,11.2436207 Z M7.50343125,3.71108344 L8.75794227,3.71108344 L8.75794227,4.96520401 L7.50343125,4.96520401 L7.50343125,3.71108344 Z M15.0344055,7.47735209 L16.2889166,7.47735209 L16.2889166,8.73147266 L15.0344055,8.73147266 L15.0344055,7.47735209 Z M15.0344055,15.0098894 L16.2889166,15.0098894 L16.2889166,16.26401 L15.0344055,16.26401 L15.0344055,15.0098894 Z"/>
    <path d="M18.7885893,3.76709652 L12.465807,3.76709652 L12.465807,1.21141071 C12.465807,0.54318093 11.922626,0 11.2543962,0 L1.21141071,0 C0.88706526,0 0.586166471,0.125048847 0.355607659,0.355607659 C0.128956624,0.582258695 0,0.88706526 0,1.21141071 L0,18.7885893 C0,19.4568191 0.54318093,20 1.21141071,20 L18.7885893,20 C19.1129347,20 19.4138335,19.8749512 19.6443923,19.6443923 C19.8749512,19.4138335 20,19.1129347 20,18.7885893 L20,4.97850723 C20,4.31027745 19.4568191,3.76709652 18.7885893,3.76709652 Z M7.28409535,18.8003126 C7.28409535,18.9409926 7.17858538,19.0543181 7.05353654,19.0543181 L5.37319265,19.0543181 C5.24423603,19.0543181 5.14263384,18.9409926 5.14263384,18.8003126 L5.14263384,16.2016413 C5.14263384,16.0609613 5.24423603,15.9476358 5.37319265,15.9476358 L7.05353654,15.9476358 C7.18249316,15.9476358 7.28409535,16.0609613 7.28409535,16.2016413 L7.28409535,18.8003126 Z M11.4224306,19.0425948 L8.11254396,19.0425948 L8.11254396,15.7835092 C8.11254396,15.6232903 8.05001954,15.4747948 7.93669402,15.3614693 C7.8233685,15.2481438 7.674873,15.1856194 7.51465416,15.1856194 L4.94333724,15.1856194 C4.78311841,15.1856194 4.6346229,15.2481438 4.52129738,15.3614693 C4.40797186,15.4747948 4.34544744,15.6232903 4.34544744,15.7835092 L4.34544744,19.0425948 L1.7272372,19.0425948 C1.54357171,19.0425948 1.36772177,18.9722548 1.23876514,18.8393904 C1.10980852,18.7104338 1.03556077,18.5345838 1.03556077,18.3509183 L1.03556077,1.6451739 C1.03556077,1.4615084 1.10590074,1.28565846 1.23876514,1.15670184 C1.36772177,1.02774521 1.54357171,0.95349746 1.7272372,0.95349746 L10.7229386,0.95349746 C10.9066041,0.95349746 11.0824541,1.02383744 11.2114107,1.15670184 C11.3403673,1.28565846 11.4146151,1.4615084 11.4146151,1.6451739 L11.4146151,19.0425948 L11.4224306,19.0425948 Z M18.9839781,18.2883939 C18.9839781,18.4720594 18.9136381,18.6440016 18.7807737,18.776866 C18.6518171,18.9058226 18.479875,18.9800703 18.2962095,18.9800703 L12.4853458,18.9800703 L12.4853458,4.79484174 L18.2962095,4.79484174 C18.479875,4.79484174 18.6518171,4.86518171 18.7846815,4.99804611 C18.9136381,5.12700274 18.9878859,5.2989449 18.9878859,5.48651817 L18.9878859,18.2883939 L18.9839781,18.2883939 Z"/>
  </g>
</svg>
