<svg xmlns="http://www.w3.org/2000/svg" width="32" height="32" viewBox="0 0 32 32">
  <g fill="#009688" transform="translate(6 6)">
    <path d="M15.0108626,11.6866159 L10.8441984,11.6866159 C10.3858581,11.6866159 10.0108578,12.0620239 10.0108578,12.5208625 L10.0108578,15.8578295 C10.0108578,16.3166485 10.3858581,16.6920566 10.8441984,16.6920566 L15.0108626,16.6920566 C15.4692029,16.6920566 15.8442033,16.3166485 15.8442033,15.8578295 L15.8442033,12.5208625 C15.8442033,12.0620239 15.4692029,11.6866159 15.0108626,11.6866159 Z M15.0108626,15.8578295 L10.8441984,15.8578295 L10.8441984,12.5208625 L15.0108626,12.5208625 L15.0108626,15.8578295 Z M16.2608639,4.17845484 L3.76085166,4.17845484 C3.51085142,4.17845484 3.3441911,4.3453159 3.3441911,4.59558794 C3.3441911,4.84585997 3.51085142,5.01270148 3.76085166,5.01270148 L16.2608639,5.01270148 C16.5108641,5.01270148 16.6775244,4.84585997 16.6775244,4.59558794 C16.6775244,4.3453159 16.5108641,4.17845484 16.2608639,4.17845484 Z"/>
    <path d="M20,5.8455161 L20,5.51148046 C20,5.30270573 19.9583398,5.05218389 19.875,4.75991494 L18.7083398,1.04383447 C18.5,0.459296562 18.0416602,0 17.6666602,0 L2.33333984,0 C1.95833984,0 1.5,0.459296562 1.29166016,1.04383447 L0.125,4.75991494 C0.0416601562,5.05218389 0,5.34447242 0,5.59499426 L0,5.80374941 C0,7.18161953 0.666660156,8.3924816 1.66666016,9.14404712 L1.66666016,17.9123115 C1.66666016,19.0814069 2.58333984,20 3.66666016,20 L16.3333398,20 C17.4166602,20 18.3333398,19.0814069 18.3333398,17.9123115 L18.3333398,9.18579424 C19.3333398,8.43422872 20,7.22338621 20,5.8455161 Z M7.5,12.5260919 L7.5,19.2066678 L5,19.2066678 L5,12.5260919 L7.5,12.5260919 Z M17.5,17.9540586 C17.5,18.663877 16.9583398,19.2066678 16.3333398,19.2066678 L8.33333984,19.2066678 L8.33333984,12.5260919 C8.33333984,12.0667954 7.95833984,11.6910126 7.5,11.6910126 L5,11.6910126 C4.54166016,11.6910126 4.16666016,12.0667954 4.16666016,12.5260919 L4.16666016,19.2066678 L3.66666016,19.2066678 C3.04166016,19.2066678 2.5,18.663877 2.5,17.9540586 L2.5,9.68683792 C3,9.89561264 3.58333984,10.0208736 4.16666016,10.0208736 C5.29166016,10.0208736 6.33333984,9.561577 7.08333984,8.81001148 C7.83333984,9.561577 8.875,10.0208736 10,10.0208736 C11.125,10.0208736 12.1666602,9.561577 12.9166602,8.81001148 C13.6666602,9.561577 14.7083398,10.0208736 15.8333398,10.0208736 C16.4166602,10.0208736 17,9.89561264 17.5,9.68683792 L17.5,17.9540586 Z M15.8333398,9.18579424 C14.9583398,9.18579424 14.125,8.85177817 13.5,8.22547357 C13.3333398,8.05844596 13.125,7.97495173 12.9166602,7.97495173 C12.7083398,7.97495173 12.5,8.05844596 12.3333398,8.22547357 C11.7083398,8.85177817 10.875,9.18579424 10,9.18579424 C9.125,9.18579424 8.29166016,8.85177817 7.66666016,8.22547357 C7.5,8.05844596 7.29166016,7.97495173 7.08333984,7.97495173 C6.875,7.97495173 6.66666016,8.05844596 6.5,8.22547357 C5.875,8.85177817 5.04166016,9.18579424 4.16666016,9.18579424 C2.33333984,9.18579424 0.833339844,7.6826632 0.833339844,5.8455161 L0.833339844,5.67848849 L0.833339844,5.55322757 C0.833339844,5.46973334 0.833339844,5.30270573 0.916660156,5.05218389 L2.08333984,1.29435631 C2.16666016,1.04383447 2.29166016,0.876826436 2.375,0.83507932 L17.5833398,0.83507932 C17.6666602,0.876826436 17.7916602,1.04383447 17.875,1.29435631 L19.0416602,5.01043678 C19.125,5.2192115 19.125,5.38621954 19.125,5.46973334 L19.125,5.80374941 C19.1666602,7.6826632 17.6666602,9.18579424 15.8333398,9.18579424 Z"/>
  </g>
</svg>
